<svg width="96" height="96" xmlns="http://www.w3.org/2000/svg" xmlns:xlink="http://www.w3.org/1999/xlink" xml:space="preserve" overflow="hidden"><defs><clipPath id="clip0"><rect x="0" y="0" width="96" height="96"/></clipPath></defs><g clip-path="url(#clip0)"><path d="M72 8 24 8C21.7936 8.00659 20.0066 9.7936 20 12L20 84C20.0066 86.2064 21.7936 87.9934 24 88L72 88C74.2064 87.9934 75.9934 86.2064 76 84L76 12C75.9934 9.7936 74.2064 8.00659 72 8ZM74 84C74 85.1046 73.1046 86 72 86L24 86C22.8954 86 22 85.1046 22 84L22 12C22 10.8954 22.8954 10 24 10L72 10C73.1046 10 74 10.8954 74 12Z"/><path d="M30 35 66 35 66 17 30 17ZM32 19 64 19 64 33 32 33Z"/><path d="M31 42 35 42 35 46 31 46Z"/><path d="M41 42 45 42 45 46 41 46Z"/><path d="M51 42 55 42 55 46 51 46Z"/><path d="M61 42 65 42 65 46 61 46Z"/><path d="M31 52 35 52 35 56 31 56Z"/><path d="M41 52 45 52 45 56 41 56Z"/><path d="M51 52 55 52 55 56 51 56Z"/><path d="M61 52 65 52 65 56 61 56Z"/><path d="M31 62 35 62 35 66 31 66Z"/><path d="M41 62 45 62 45 66 41 66Z"/><path d="M51 62 55 62 55 66 51 66Z"/><path d="M61 62 65 62 65 66 61 66Z"/><path d="M31 72 45 72 45 76 31 76Z"/><path d="M51 72 55 72 55 76 51 76Z"/><path d="M61 72 65 72 65 76 61 76Z"/></g></svg>