<svg width="33" height="34" viewBox="0 0 33 34" fill="none" xmlns="http://www.w3.org/2000/svg">
<g clip-path="url(#clip0_837_644)">
<path d="M16.5728 32.7866C7.89283 32.7866 0.749023 25.6428 0.749023 16.9628C0.749023 8.28284 7.89283 1.13904 16.5728 1.13904C25.2528 1.13904 32.3966 8.28284 32.3966 16.9628C32.3966 19.9424 31.5545 22.8613 29.9701 25.3841" stroke="#071E3D" stroke-width="0.883163" stroke-miterlimit="10"/>
<path d="M28.6514 24.6795L29.1635 26.6511C29.1706 26.6778 29.1992 26.6939 29.2259 26.6885L31.1974 26.1765C31.242 26.1658 31.2492 26.1069 31.2099 26.0837L28.7264 24.6242C28.6871 24.601 28.6389 24.6367 28.6514 24.6813V24.6795Z" fill="#071E3D"/>
<path d="M8.06155 8.65588H5.67969V23.7375H8.06155V8.65588Z" fill="#071E3D"/>
<path d="M12.9541 11.8156H10.5723V23.7374H12.9541V11.8156Z" fill="#071E3D"/>
<path d="M27.627 15.1752H25.2451V23.7356H27.627V15.1752Z" fill="#071E3D"/>
<path d="M22.7364 6.62012H20.3545V23.7356H22.7364V6.62012Z" fill="#071E3D"/>
<path d="M17.8448 4.86279H15.4629V23.7375H17.8448V4.86279Z" fill="#071E3D"/>
</g>
<defs>
<clipPath id="clip0_837_644">
<rect width="32.5396" height="32.5396" fill="white" transform="translate(0.302734 0.693115)"/>
</clipPath>
</defs>
</svg>
