<svg width="79" height="79" viewBox="0 0 79 79" fill="none" xmlns="http://www.w3.org/2000/svg">
<g clip-path="url(#clip0_845_1264)">
<path d="M39.2501 77.4239C18.3102 77.4239 1.07617 60.1899 1.07617 39.25C1.07617 18.3101 18.3102 1.07605 39.2501 1.07605C60.1901 1.07605 77.4241 18.3101 77.4241 39.25C77.4241 46.438 75.3925 53.4797 71.5704 59.5658" stroke="#071E3D" stroke-width="2.13058" stroke-miterlimit="10"/>
<path d="M68.3896 57.8657L69.6249 62.6219C69.6421 62.6864 69.711 62.7252 69.7756 62.7123L74.5317 61.477C74.6393 61.4511 74.6565 61.3091 74.5618 61.2531L68.5704 57.7323C68.4757 57.6764 68.3595 57.7624 68.3896 57.87V57.8657Z" fill="#071E3D"/>
<path d="M18.7188 19.2097H12.9727V55.5931H18.7188V19.2097Z" fill="#071E3D"/>
<path d="M30.5205 26.8322H24.7744V55.5928H30.5205V26.8322Z" fill="#071E3D"/>
<path d="M65.919 34.9371H60.1729V55.5887H65.919V34.9371Z" fill="#071E3D"/>
<path d="M54.1201 14.2986H48.374V55.5888H54.1201V14.2986Z" fill="#071E3D"/>
<path d="M42.3184 10.0588H36.5723V55.593H42.3184V10.0588Z" fill="#071E3D"/>
</g>
<defs>
<clipPath id="clip0_845_1264">
<rect width="78.5" height="78.5" fill="white"/>
</clipPath>
</defs>
</svg>
