<svg width="199" height="219" viewBox="0 0 199 219" fill="none" xmlns="http://www.w3.org/2000/svg">
<path fill-rule="evenodd" clip-rule="evenodd" d="M177.017 26.5805C177.17 26.7299 177.292 26.9073 177.375 27.1027C177.457 27.2982 177.5 27.5076 177.5 27.7192C177.5 27.9307 177.457 28.1402 177.375 28.3356C177.292 28.531 177.17 28.7085 177.017 28.8579L157.307 48.1585C156.999 48.4605 156.581 48.6301 156.145 48.6301C155.708 48.6301 155.29 48.4605 154.982 48.1585C154.673 47.8565 154.5 47.4468 154.5 47.0197C154.5 46.5926 154.673 46.183 154.982 45.881L173.532 27.7192L154.982 9.55737C154.673 9.25536 154.5 8.84574 154.5 8.41864C154.5 7.99153 154.673 7.58192 154.982 7.2799C155.29 6.97789 155.708 6.80823 156.145 6.80823C156.581 6.80823 156.999 6.97789 157.307 7.27991L177.017 26.5805Z" fill="#071E3D"/>
<path fill-rule="evenodd" clip-rule="evenodd" d="M96.0175 26.5805C96.1704 26.7299 96.2918 26.9073 96.3746 27.1027C96.4574 27.2982 96.5 27.5076 96.5 27.7192C96.5 27.9307 96.4574 28.1402 96.3746 28.3356C96.2918 28.531 96.1704 28.7085 96.0175 28.8579L76.3075 48.1585C75.999 48.4605 75.5807 48.6301 75.1446 48.6301C74.7084 48.6301 74.2901 48.4605 73.9817 48.1585C73.6733 47.8565 73.5 47.4468 73.5 47.0197C73.5 46.5926 73.6733 46.183 73.9817 45.881L92.5321 27.7192L73.9817 9.55737C73.6733 9.25536 73.5 8.84574 73.5 8.41864C73.5 7.99153 73.6733 7.58192 73.9817 7.2799C74.2901 6.97789 74.7084 6.80823 75.1446 6.80823C75.5807 6.80823 75.999 6.97789 76.3075 7.27991L96.0175 26.5805Z" fill="#071E3D"/>
<path fill-rule="evenodd" clip-rule="evenodd" d="M135.017 26.5805C135.17 26.7299 135.292 26.9073 135.375 27.1027C135.457 27.2982 135.5 27.5076 135.5 27.7192C135.5 27.9307 135.457 28.1402 135.375 28.3356C135.292 28.531 135.17 28.7085 135.017 28.8579L115.307 48.1585C114.999 48.4605 114.581 48.6301 114.145 48.6301C113.708 48.6301 113.29 48.4605 112.982 48.1585C112.673 47.8565 112.5 47.4468 112.5 47.0197C112.5 46.5926 112.673 46.183 112.982 45.881L131.532 27.7192L112.982 9.55737C112.673 9.25536 112.5 8.84574 112.5 8.41864C112.5 7.99153 112.673 7.58192 112.982 7.2799C113.29 6.97789 113.708 6.80823 114.145 6.80823C114.581 6.80823 114.999 6.97789 115.307 7.27991L135.017 26.5805Z" fill="#071E3D"/>
<path fill-rule="evenodd" clip-rule="evenodd" d="M52.0175 26.5805C52.1704 26.7299 52.2918 26.9073 52.3746 27.1027C52.4574 27.2982 52.5 27.5076 52.5 27.7192C52.5 27.9307 52.4574 28.1402 52.3746 28.3356C52.2918 28.531 52.1704 28.7085 52.0175 28.8579L32.3075 48.1585C31.999 48.4605 31.5807 48.6301 31.1446 48.6301C30.7084 48.6301 30.2901 48.4605 29.9817 48.1585C29.6733 47.8565 29.5 47.4468 29.5 47.0197C29.5 46.5926 29.6733 46.183 29.9817 45.881L48.5321 27.7192L29.9817 9.55737C29.6733 9.25536 29.5 8.84574 29.5 8.41864C29.5 7.99153 29.6733 7.58192 29.9817 7.2799C30.2901 6.97789 30.7084 6.80823 31.1446 6.80823C31.5807 6.80823 31.999 6.97789 32.3075 7.27991L52.0175 26.5805Z" fill="#071E3D"/>
<path fill-rule="evenodd" clip-rule="evenodd" d="M177.017 100.58C177.17 100.73 177.292 100.907 177.375 101.103C177.457 101.298 177.5 101.508 177.5 101.719C177.5 101.931 177.457 102.14 177.375 102.336C177.292 102.531 177.17 102.709 177.017 102.858L157.307 122.158C156.999 122.46 156.581 122.63 156.145 122.63C155.708 122.63 155.29 122.46 154.982 122.158C154.673 121.856 154.5 121.447 154.5 121.02C154.5 120.593 154.673 120.183 154.982 119.881L173.532 101.719L154.982 83.5574C154.673 83.2554 154.5 82.8457 154.5 82.4186C154.5 81.9915 154.673 81.5819 154.982 81.2799C155.29 80.9779 155.708 80.8082 156.145 80.8082C156.581 80.8082 156.999 80.9779 157.307 81.2799L177.017 100.58Z" fill="#071E3D"/>
<path fill-rule="evenodd" clip-rule="evenodd" d="M96.0175 100.58C96.1704 100.73 96.2918 100.907 96.3746 101.103C96.4574 101.298 96.5 101.508 96.5 101.719C96.5 101.931 96.4574 102.14 96.3746 102.336C96.2918 102.531 96.1704 102.709 96.0175 102.858L76.3075 122.158C75.999 122.46 75.5807 122.63 75.1446 122.63C74.7084 122.63 74.2901 122.46 73.9817 122.158C73.6733 121.856 73.5 121.447 73.5 121.02C73.5 120.593 73.6733 120.183 73.9817 119.881L92.5321 101.719L73.9817 83.5574C73.6733 83.2554 73.5 82.8457 73.5 82.4186C73.5 81.9915 73.6733 81.5819 73.9817 81.2799C74.2901 80.9779 74.7084 80.8082 75.1446 80.8082C75.5807 80.8082 75.999 80.9779 76.3075 81.2799L96.0175 100.58Z" fill="#071E3D"/>
<path fill-rule="evenodd" clip-rule="evenodd" d="M135.017 100.58C135.17 100.73 135.292 100.907 135.375 101.103C135.457 101.298 135.5 101.508 135.5 101.719C135.5 101.931 135.457 102.14 135.375 102.336C135.292 102.531 135.17 102.709 135.017 102.858L115.307 122.158C114.999 122.46 114.581 122.63 114.145 122.63C113.708 122.63 113.29 122.46 112.982 122.158C112.673 121.856 112.5 121.447 112.5 121.02C112.5 120.593 112.673 120.183 112.982 119.881L131.532 101.719L112.982 83.5574C112.673 83.2554 112.5 82.8457 112.5 82.4186C112.5 81.9915 112.673 81.5819 112.982 81.2799C113.29 80.9779 113.708 80.8082 114.145 80.8082C114.581 80.8082 114.999 80.9779 115.307 81.2799L135.017 100.58Z" fill="#071E3D"/>
<path fill-rule="evenodd" clip-rule="evenodd" d="M52.0175 100.58C52.1704 100.73 52.2918 100.907 52.3746 101.103C52.4574 101.298 52.5 101.508 52.5 101.719C52.5 101.931 52.4574 102.14 52.3746 102.336C52.2918 102.531 52.1704 102.709 52.0175 102.858L32.3075 122.158C31.999 122.46 31.5807 122.63 31.1446 122.63C30.7084 122.63 30.2901 122.46 29.9817 122.158C29.6733 121.856 29.5 121.447 29.5 121.02C29.5 120.593 29.6733 120.183 29.9817 119.881L48.5321 101.719L29.9817 83.5574C29.6733 83.2554 29.5 82.8457 29.5 82.4186C29.5 81.9915 29.6733 81.5819 29.9817 81.2799C30.2901 80.9779 30.7084 80.8082 31.1446 80.8082C31.5807 80.8082 31.999 80.9779 32.3075 81.2799L52.0175 100.58Z" fill="#071E3D"/>
<path fill-rule="evenodd" clip-rule="evenodd" d="M177.017 174.58C177.17 174.73 177.292 174.907 177.375 175.103C177.457 175.298 177.5 175.508 177.5 175.719C177.5 175.931 177.457 176.14 177.375 176.336C177.292 176.531 177.17 176.709 177.017 176.858L157.307 196.158C156.999 196.46 156.581 196.63 156.145 196.63C155.708 196.63 155.29 196.46 154.982 196.158C154.673 195.856 154.5 195.447 154.5 195.02C154.5 194.593 154.673 194.183 154.982 193.881L173.532 175.719L154.982 157.557C154.673 157.255 154.5 156.846 154.5 156.419C154.5 155.992 154.673 155.582 154.982 155.28C155.29 154.978 155.708 154.808 156.145 154.808C156.581 154.808 156.999 154.978 157.307 155.28L177.017 174.58Z" fill="#071E3D"/>
<path fill-rule="evenodd" clip-rule="evenodd" d="M96.0175 174.58C96.1704 174.73 96.2918 174.907 96.3746 175.103C96.4574 175.298 96.5 175.508 96.5 175.719C96.5 175.931 96.4574 176.14 96.3746 176.336C96.2918 176.531 96.1704 176.709 96.0175 176.858L76.3075 196.158C75.999 196.46 75.5807 196.63 75.1446 196.63C74.7084 196.63 74.2901 196.46 73.9817 196.158C73.6733 195.856 73.5 195.447 73.5 195.02C73.5 194.593 73.6733 194.183 73.9817 193.881L92.5321 175.719L73.9817 157.557C73.6733 157.255 73.5 156.846 73.5 156.419C73.5 155.992 73.6733 155.582 73.9817 155.28C74.2901 154.978 74.7084 154.808 75.1446 154.808C75.5807 154.808 75.999 154.978 76.3075 155.28L96.0175 174.58Z" fill="#071E3D"/>
<path fill-rule="evenodd" clip-rule="evenodd" d="M135.017 174.58C135.17 174.73 135.292 174.907 135.375 175.103C135.457 175.298 135.5 175.508 135.5 175.719C135.5 175.931 135.457 176.14 135.375 176.336C135.292 176.531 135.17 176.709 135.017 176.858L115.307 196.158C114.999 196.46 114.581 196.63 114.145 196.63C113.708 196.63 113.29 196.46 112.982 196.158C112.673 195.856 112.5 195.447 112.5 195.02C112.5 194.593 112.673 194.183 112.982 193.881L131.532 175.719L112.982 157.557C112.673 157.255 112.5 156.846 112.5 156.419C112.5 155.992 112.673 155.582 112.982 155.28C113.29 154.978 113.708 154.808 114.145 154.808C114.581 154.808 114.999 154.978 115.307 155.28L135.017 174.58Z" fill="#071E3D"/>
<path fill-rule="evenodd" clip-rule="evenodd" d="M52.0175 174.58C52.1704 174.73 52.2918 174.907 52.3746 175.103C52.4574 175.298 52.5 175.508 52.5 175.719C52.5 175.931 52.4574 176.14 52.3746 176.336C52.2918 176.531 52.1704 176.709 52.0175 176.858L32.3075 196.158C31.999 196.46 31.5807 196.63 31.1446 196.63C30.7084 196.63 30.2901 196.46 29.9817 196.158C29.6733 195.856 29.5 195.447 29.5 195.02C29.5 194.593 29.6733 194.183 29.9817 193.881L48.5321 175.719L29.9817 157.557C29.6733 157.255 29.5 156.846 29.5 156.419C29.5 155.992 29.6733 155.582 29.9817 155.28C30.2901 154.978 30.7084 154.808 31.1446 154.808C31.5807 154.808 31.999 154.978 32.3075 155.28L52.0175 174.58Z" fill="#071E3D"/>
</svg>
