<svg width="136" height="150" viewBox="0 0 136 150" fill="none" xmlns="http://www.w3.org/2000/svg">
<path d="M49 26L35.5714 10L22.1429 26L2 2" stroke="#071E3D" stroke-width="4" stroke-miterlimit="5.759" stroke-linecap="round" stroke-linejoin="round"/>
<path d="M49 66L35.5714 50.6667L22.1429 66L2 43" stroke="#071E3D" stroke-width="4" stroke-miterlimit="5.759" stroke-linecap="round" stroke-linejoin="round"/>
<path d="M49 107L35.5714 91.6667L22.1429 107L2 84" stroke="#071E3D" stroke-width="4" stroke-miterlimit="5.759" stroke-linecap="round" stroke-linejoin="round"/>
<path d="M49 148L35.5714 132L22.1429 148L2 124" stroke="#071E3D" stroke-width="4" stroke-miterlimit="5.759" stroke-linecap="round" stroke-linejoin="round"/>
<path d="M119 26L105.571 10L92.1429 26L72 2" stroke="#071E3D" stroke-width="4" stroke-miterlimit="5.759" stroke-linecap="round" stroke-linejoin="round"/>
<path d="M119 66L105.571 50.6667L92.1429 66L72 43" stroke="#071E3D" stroke-width="4" stroke-miterlimit="5.759" stroke-linecap="round" stroke-linejoin="round"/>
<path d="M119 107L105.571 91.6667L92.1429 107L72 84" stroke="#071E3D" stroke-width="4" stroke-miterlimit="5.759" stroke-linecap="round" stroke-linejoin="round"/>
<path d="M119 148L105.571 132L92.1429 148L72 124" stroke="#071E3D" stroke-width="4" stroke-miterlimit="5.759" stroke-linecap="round" stroke-linejoin="round"/>
<path d="M13 2H2V14" stroke="#071E3D" stroke-width="4" stroke-linecap="round" stroke-linejoin="round"/>
<path d="M13 43H2V55" stroke="#071E3D" stroke-width="4" stroke-linecap="round" stroke-linejoin="round"/>
<path d="M13 84H2V95" stroke="#071E3D" stroke-width="4" stroke-linecap="round" stroke-linejoin="round"/>
<path d="M13 124H2V136" stroke="#071E3D" stroke-width="4" stroke-linecap="round" stroke-linejoin="round"/>
<path d="M82 2H72V14" stroke="#071E3D" stroke-width="4" stroke-linecap="round" stroke-linejoin="round"/>
<path d="M82 43H72V55" stroke="#071E3D" stroke-width="4" stroke-linecap="round" stroke-linejoin="round"/>
<path d="M82 84H72V95" stroke="#071E3D" stroke-width="4" stroke-linecap="round" stroke-linejoin="round"/>
<path d="M82 124H72V136" stroke="#071E3D" stroke-width="4" stroke-linecap="round" stroke-linejoin="round"/>
</svg>
