<svg width="253" height="391" viewBox="0 0 253 391" fill="none" xmlns="http://www.w3.org/2000/svg">
<ellipse cx="188" cy="131.5" rx="188" ry="131.5" fill="#071E3D"/>
<ellipse cx="319" cy="259.5" rx="188" ry="131.5" fill="#071E3D"/>
<path d="M51 62L37.5714 46L24.1429 62L4 38" stroke="#21E6C1" stroke-width="4" stroke-miterlimit="5.759" stroke-linecap="round" stroke-linejoin="round"/>
<path d="M51 102L37.5714 86.6667L24.1429 102L4 79" stroke="#21E6C1" stroke-width="4" stroke-miterlimit="5.759" stroke-linecap="round" stroke-linejoin="round"/>
<path d="M51 143L37.5714 127.667L24.1429 143L4 120" stroke="#21E6C1" stroke-width="4" stroke-miterlimit="5.759" stroke-linecap="round" stroke-linejoin="round"/>
<path d="M51 184L37.5714 168L24.1429 184L4 160" stroke="#21E6C1" stroke-width="4" stroke-miterlimit="5.759" stroke-linecap="round" stroke-linejoin="round"/>
<path d="M121 62L107.571 46L94.1429 62L74 38" stroke="#21E6C1" stroke-width="4" stroke-miterlimit="5.759" stroke-linecap="round" stroke-linejoin="round"/>
<path d="M121 102L107.571 86.6667L94.1429 102L74 79" stroke="#21E6C1" stroke-width="4" stroke-miterlimit="5.759" stroke-linecap="round" stroke-linejoin="round"/>
<path d="M121 143L107.571 127.667L94.1429 143L74 120" stroke="#21E6C1" stroke-width="4" stroke-miterlimit="5.759" stroke-linecap="round" stroke-linejoin="round"/>
<path d="M121 184L107.571 168L94.1429 184L74 160" stroke="#21E6C1" stroke-width="4" stroke-miterlimit="5.759" stroke-linecap="round" stroke-linejoin="round"/>
<path d="M191 62L177.286 46L163.571 62L143 38" stroke="#21E6C1" stroke-width="4" stroke-miterlimit="5.759" stroke-linecap="round" stroke-linejoin="round"/>
<path d="M191 102L177.286 86.6667L163.571 102L143 79" stroke="#21E6C1" stroke-width="4" stroke-miterlimit="5.759" stroke-linecap="round" stroke-linejoin="round"/>
<path d="M191 143L177.286 127.667L163.571 143L143 120" stroke="#21E6C1" stroke-width="4" stroke-miterlimit="5.759" stroke-linecap="round" stroke-linejoin="round"/>
<path d="M191 184L177.286 168L163.571 184L143 160" stroke="#21E6C1" stroke-width="4" stroke-miterlimit="5.759" stroke-linecap="round" stroke-linejoin="round"/>
<path d="M15 38H4V50" stroke="#21E6C1" stroke-width="4" stroke-linecap="round" stroke-linejoin="round"/>
<path d="M15 79H4V91" stroke="#21E6C1" stroke-width="4" stroke-linecap="round" stroke-linejoin="round"/>
<path d="M15 120H4V131" stroke="#21E6C1" stroke-width="4" stroke-linecap="round" stroke-linejoin="round"/>
<path d="M15 160H4V172" stroke="#21E6C1" stroke-width="4" stroke-linecap="round" stroke-linejoin="round"/>
<path d="M84 38H74V50" stroke="#21E6C1" stroke-width="4" stroke-linecap="round" stroke-linejoin="round"/>
<path d="M84 79H74V91" stroke="#21E6C1" stroke-width="4" stroke-linecap="round" stroke-linejoin="round"/>
<path d="M84 120H74V131" stroke="#21E6C1" stroke-width="4" stroke-linecap="round" stroke-linejoin="round"/>
<path d="M84 160H74V172" stroke="#21E6C1" stroke-width="4" stroke-linecap="round" stroke-linejoin="round"/>
<path d="M154 38H143V50" stroke="#21E6C1" stroke-width="4" stroke-linecap="round" stroke-linejoin="round"/>
<path d="M154 79H143V91" stroke="#21E6C1" stroke-width="4" stroke-linecap="round" stroke-linejoin="round"/>
<path d="M154 120H143V131" stroke="#21E6C1" stroke-width="4" stroke-linecap="round" stroke-linejoin="round"/>
<path d="M154 160H143V172" stroke="#21E6C1" stroke-width="4" stroke-linecap="round" stroke-linejoin="round"/>
</svg>
