<svg width="316" height="316" viewBox="0 0 316 316" fill="none" xmlns="http://www.w3.org/2000/svg">
<circle cx="5.90654" cy="5.90654" r="5.90654" fill="#071E3D"/>
<circle cx="5.90654" cy="179.728" r="5.90654" fill="#071E3D"/>
<circle cx="5.90654" cy="92.8172" r="5.90654" fill="#071E3D"/>
<circle cx="5.90654" cy="266.638" r="5.90654" fill="#071E3D"/>
<circle cx="5.90654" cy="49.3619" r="5.90654" fill="#071E3D"/>
<circle cx="5.90654" cy="223.183" r="5.90654" fill="#071E3D"/>
<circle cx="5.90654" cy="136.272" r="5.90654" fill="#071E3D"/>
<circle cx="5.90654" cy="310.094" r="5.90654" fill="#071E3D"/>
<circle cx="179.728" cy="5.90654" r="5.90654" fill="#071E3D"/>
<circle cx="179.728" cy="179.728" r="5.90654" fill="#071E3D"/>
<circle cx="179.728" cy="92.8172" r="5.90654" fill="#071E3D"/>
<circle cx="179.728" cy="266.638" r="5.90654" fill="#071E3D"/>
<circle cx="179.728" cy="49.3619" r="5.90654" fill="#071E3D"/>
<circle cx="179.728" cy="223.183" r="5.90654" fill="#071E3D"/>
<circle cx="179.728" cy="136.272" r="5.90654" fill="#071E3D"/>
<circle cx="179.728" cy="310.094" r="5.90654" fill="#071E3D"/>
<circle cx="92.8167" cy="5.90654" r="5.90654" fill="#071E3D"/>
<circle cx="92.8167" cy="179.728" r="5.90654" fill="#071E3D"/>
<circle cx="92.8167" cy="92.8172" r="5.90654" fill="#071E3D"/>
<circle cx="92.8167" cy="266.638" r="5.90654" fill="#071E3D"/>
<circle cx="92.8167" cy="49.3619" r="5.90654" fill="#071E3D"/>
<circle cx="92.8167" cy="223.183" r="5.90654" fill="#071E3D"/>
<circle cx="92.8167" cy="136.272" r="5.90654" fill="#071E3D"/>
<circle cx="92.8167" cy="310.094" r="5.90654" fill="#071E3D"/>
<circle cx="266.639" cy="5.90654" r="5.90654" fill="#071E3D"/>
<circle cx="266.639" cy="179.728" r="5.90654" fill="#071E3D"/>
<circle cx="266.639" cy="92.8172" r="5.90654" fill="#071E3D"/>
<circle cx="266.639" cy="266.638" r="5.90654" fill="#071E3D"/>
<circle cx="266.639" cy="49.3619" r="5.90654" fill="#071E3D"/>
<circle cx="266.639" cy="223.183" r="5.90654" fill="#071E3D"/>
<circle cx="266.639" cy="136.272" r="5.90654" fill="#071E3D"/>
<circle cx="266.639" cy="310.094" r="5.90654" fill="#071E3D"/>
<circle cx="49.3616" cy="5.90654" r="5.90654" fill="#071E3D"/>
<circle cx="49.3616" cy="179.728" r="5.90654" fill="#071E3D"/>
<circle cx="49.3616" cy="92.8172" r="5.90654" fill="#071E3D"/>
<circle cx="49.3616" cy="266.638" r="5.90654" fill="#071E3D"/>
<circle cx="49.3616" cy="49.3619" r="5.90654" fill="#071E3D"/>
<circle cx="49.3616" cy="223.183" r="5.90654" fill="#071E3D"/>
<circle cx="49.3616" cy="136.272" r="5.90654" fill="#071E3D"/>
<circle cx="49.3616" cy="310.094" r="5.90654" fill="#071E3D"/>
<circle cx="223.183" cy="5.90654" r="5.90654" fill="#071E3D"/>
<circle cx="223.183" cy="179.728" r="5.90654" fill="#071E3D"/>
<circle cx="223.183" cy="92.8172" r="5.90654" fill="#071E3D"/>
<circle cx="223.183" cy="266.638" r="5.90654" fill="#071E3D"/>
<circle cx="223.183" cy="49.3619" r="5.90654" fill="#071E3D"/>
<circle cx="223.183" cy="223.183" r="5.90654" fill="#071E3D"/>
<circle cx="223.183" cy="136.272" r="5.90654" fill="#071E3D"/>
<circle cx="223.183" cy="310.094" r="5.90654" fill="#071E3D"/>
<circle cx="136.272" cy="5.90654" r="5.90654" fill="#071E3D"/>
<circle cx="136.272" cy="179.728" r="5.90654" fill="#071E3D"/>
<circle cx="136.272" cy="92.8172" r="5.90654" fill="#071E3D"/>
<circle cx="136.272" cy="266.638" r="5.90654" fill="#071E3D"/>
<circle cx="136.272" cy="49.3619" r="5.90654" fill="#071E3D"/>
<circle cx="136.272" cy="223.183" r="5.90654" fill="#071E3D"/>
<circle cx="136.272" cy="136.272" r="5.90654" fill="#071E3D"/>
<circle cx="136.272" cy="310.094" r="5.90654" fill="#071E3D"/>
<circle cx="310.094" cy="5.90654" r="5.90654" fill="#071E3D"/>
<circle cx="310.094" cy="179.728" r="5.90654" fill="#071E3D"/>
<circle cx="310.094" cy="92.8172" r="5.90654" fill="#071E3D"/>
<circle cx="310.094" cy="266.638" r="5.90654" fill="#071E3D"/>
<circle cx="310.094" cy="49.3619" r="5.90654" fill="#071E3D"/>
<circle cx="310.094" cy="223.183" r="5.90654" fill="#071E3D"/>
<circle cx="310.094" cy="136.272" r="5.90654" fill="#071E3D"/>
<circle cx="310.094" cy="310.094" r="5.90654" fill="#071E3D"/>
</svg>
