<svg width="176" height="150" viewBox="0 0 176 150" fill="none" xmlns="http://www.w3.org/2000/svg">
<path d="M126.497 26L140.069 10L153.641 26L174 2" stroke="#071E3D" stroke-width="4" stroke-miterlimit="5.759" stroke-linecap="round" stroke-linejoin="round"/>
<path d="M126.497 66L140.069 50.6667L153.641 66L174 43" stroke="#071E3D" stroke-width="4" stroke-miterlimit="5.759" stroke-linecap="round" stroke-linejoin="round"/>
<path d="M126.497 107L140.069 91.6667L153.641 107L174 84" stroke="#071E3D" stroke-width="4" stroke-miterlimit="5.759" stroke-linecap="round" stroke-linejoin="round"/>
<path d="M126.497 148L140.069 132L153.641 148L174 124" stroke="#071E3D" stroke-width="4" stroke-miterlimit="5.759" stroke-linecap="round" stroke-linejoin="round"/>
<path d="M55.749 26L69.3212 10L82.8934 26L103.252 2" stroke="#071E3D" stroke-width="4" stroke-miterlimit="5.759" stroke-linecap="round" stroke-linejoin="round"/>
<path d="M55.749 66L69.3212 50.6667L82.8934 66L103.252 43" stroke="#071E3D" stroke-width="4" stroke-miterlimit="5.759" stroke-linecap="round" stroke-linejoin="round"/>
<path d="M55.749 107L69.3212 91.6667L82.8934 107L103.252 84" stroke="#071E3D" stroke-width="4" stroke-miterlimit="5.759" stroke-linecap="round" stroke-linejoin="round"/>
<path d="M55.749 148L69.3212 132L82.8934 148L103.252 124" stroke="#071E3D" stroke-width="4" stroke-miterlimit="5.759" stroke-linecap="round" stroke-linejoin="round"/>
<path d="M-15 26L-1.13904 10L12.7219 26L33.5134 2" stroke="#071E3D" stroke-width="4" stroke-miterlimit="5.759" stroke-linecap="round" stroke-linejoin="round"/>
<path d="M-15 66L-1.13904 50.6667L12.7219 66L33.5134 43" stroke="#071E3D" stroke-width="4" stroke-miterlimit="5.759" stroke-linecap="round" stroke-linejoin="round"/>
<path d="M-15 107L-1.13904 91.6667L12.7219 107L33.5134 84" stroke="#071E3D" stroke-width="4" stroke-miterlimit="5.759" stroke-linecap="round" stroke-linejoin="round"/>
<path d="M-15 148L-1.13904 132L12.7219 148L33.5134 124" stroke="#071E3D" stroke-width="4" stroke-miterlimit="5.759" stroke-linecap="round" stroke-linejoin="round"/>
<path d="M162.883 2H174V14" stroke="#071E3D" stroke-width="4" stroke-linecap="round" stroke-linejoin="round"/>
<path d="M162.883 43H174V55" stroke="#071E3D" stroke-width="4" stroke-linecap="round" stroke-linejoin="round"/>
<path d="M162.883 84H174V95" stroke="#071E3D" stroke-width="4" stroke-linecap="round" stroke-linejoin="round"/>
<path d="M162.883 124H174V136" stroke="#071E3D" stroke-width="4" stroke-linecap="round" stroke-linejoin="round"/>
<path d="M93.1445 2H103.251V14" stroke="#071E3D" stroke-width="4" stroke-linecap="round" stroke-linejoin="round"/>
<path d="M93.1445 43H103.251V55" stroke="#071E3D" stroke-width="4" stroke-linecap="round" stroke-linejoin="round"/>
<path d="M93.1445 84H103.251V95" stroke="#071E3D" stroke-width="4" stroke-linecap="round" stroke-linejoin="round"/>
<path d="M93.1445 124H103.251V136" stroke="#071E3D" stroke-width="4" stroke-linecap="round" stroke-linejoin="round"/>
<path d="M22.3955 2H33.5132V14" stroke="#071E3D" stroke-width="4" stroke-linecap="round" stroke-linejoin="round"/>
<path d="M22.3955 43H33.5132V55" stroke="#071E3D" stroke-width="4" stroke-linecap="round" stroke-linejoin="round"/>
<path d="M22.3955 84H33.5132V95" stroke="#071E3D" stroke-width="4" stroke-linecap="round" stroke-linejoin="round"/>
<path d="M22.3955 124H33.5132V136" stroke="#071E3D" stroke-width="4" stroke-linecap="round" stroke-linejoin="round"/>
</svg>
