<svg width="158" height="316" viewBox="0 0 158 316" fill="none" xmlns="http://www.w3.org/2000/svg">
<circle cx="21.7278" cy="5.90654" r="5.90654" fill="#071E3D"/>
<circle cx="21.7278" cy="179.728" r="5.90654" fill="#071E3D"/>
<circle cx="21.7278" cy="92.8172" r="5.90654" fill="#071E3D"/>
<circle cx="21.7278" cy="266.638" r="5.90654" fill="#071E3D"/>
<circle cx="21.7278" cy="49.3619" r="5.90654" fill="#071E3D"/>
<circle cx="21.7278" cy="223.183" r="5.90654" fill="#071E3D"/>
<circle cx="21.7278" cy="136.272" r="5.90654" fill="#071E3D"/>
<circle cx="21.7278" cy="310.094" r="5.90654" fill="#071E3D"/>
<circle cx="108.639" cy="5.90654" r="5.90654" fill="#071E3D"/>
<circle cx="108.639" cy="179.728" r="5.90654" fill="#071E3D"/>
<circle cx="108.639" cy="92.8172" r="5.90654" fill="#071E3D"/>
<circle cx="108.639" cy="266.638" r="5.90654" fill="#071E3D"/>
<circle cx="108.639" cy="49.3619" r="5.90654" fill="#071E3D"/>
<circle cx="108.639" cy="223.183" r="5.90654" fill="#071E3D"/>
<circle cx="108.639" cy="136.272" r="5.90654" fill="#071E3D"/>
<circle cx="108.639" cy="310.094" r="5.90654" fill="#071E3D"/>
<circle cx="65.1829" cy="5.90654" r="5.90654" fill="#071E3D"/>
<circle cx="65.1829" cy="179.728" r="5.90654" fill="#071E3D"/>
<circle cx="65.1829" cy="92.8172" r="5.90654" fill="#071E3D"/>
<circle cx="65.1829" cy="266.638" r="5.90654" fill="#071E3D"/>
<circle cx="65.1829" cy="49.3619" r="5.90654" fill="#071E3D"/>
<circle cx="65.1829" cy="223.183" r="5.90654" fill="#071E3D"/>
<circle cx="65.1829" cy="136.272" r="5.90654" fill="#071E3D"/>
<circle cx="65.1829" cy="310.094" r="5.90654" fill="#071E3D"/>
<circle cx="152.094" cy="5.90654" r="5.90654" fill="#071E3D"/>
<circle cx="152.094" cy="179.728" r="5.90654" fill="#071E3D"/>
<circle cx="152.094" cy="92.8172" r="5.90654" fill="#071E3D"/>
<circle cx="152.094" cy="266.638" r="5.90654" fill="#071E3D"/>
<circle cx="152.094" cy="49.3619" r="5.90654" fill="#071E3D"/>
<circle cx="152.094" cy="223.183" r="5.90654" fill="#071E3D"/>
<circle cx="152.094" cy="136.272" r="5.90654" fill="#071E3D"/>
<circle cx="152.094" cy="310.094" r="5.90654" fill="#071E3D"/>
</svg>
