<svg width="191" height="151" viewBox="0 0 191 151" fill="none" xmlns="http://www.w3.org/2000/svg">
<path d="M49 26.5L35.5714 10.5L22.1429 26.5L2 2.5" stroke="#21E6C1" stroke-width="4" stroke-miterlimit="5.759" stroke-linecap="round" stroke-linejoin="round"/>
<path d="M49 66.5L35.5714 51.1667L22.1429 66.5L2 43.5" stroke="#21E6C1" stroke-width="4" stroke-miterlimit="5.759" stroke-linecap="round" stroke-linejoin="round"/>
<path d="M49 107.5L35.5714 92.1667L22.1429 107.5L2 84.5" stroke="#21E6C1" stroke-width="4" stroke-miterlimit="5.759" stroke-linecap="round" stroke-linejoin="round"/>
<path d="M49 148.5L35.5714 132.5L22.1429 148.5L2 124.5" stroke="#21E6C1" stroke-width="4" stroke-miterlimit="5.759" stroke-linecap="round" stroke-linejoin="round"/>
<path d="M119 26.5L105.571 10.5L92.1429 26.5L72 2.5" stroke="#21E6C1" stroke-width="4" stroke-miterlimit="5.759" stroke-linecap="round" stroke-linejoin="round"/>
<path d="M119 66.5L105.571 51.1667L92.1429 66.5L72 43.5" stroke="#21E6C1" stroke-width="4" stroke-miterlimit="5.759" stroke-linecap="round" stroke-linejoin="round"/>
<path d="M119 107.5L105.571 92.1667L92.1429 107.5L72 84.5" stroke="#21E6C1" stroke-width="4" stroke-miterlimit="5.759" stroke-linecap="round" stroke-linejoin="round"/>
<path d="M119 148.5L105.571 132.5L92.1429 148.5L72 124.5" stroke="#21E6C1" stroke-width="4" stroke-miterlimit="5.759" stroke-linecap="round" stroke-linejoin="round"/>
<path d="M189 26.5L175.286 10.5L161.571 26.5L141 2.5" stroke="#21E6C1" stroke-width="4" stroke-miterlimit="5.759" stroke-linecap="round" stroke-linejoin="round"/>
<path d="M189 66.5L175.286 51.1667L161.571 66.5L141 43.5" stroke="#21E6C1" stroke-width="4" stroke-miterlimit="5.759" stroke-linecap="round" stroke-linejoin="round"/>
<path d="M189 107.5L175.286 92.1667L161.571 107.5L141 84.5" stroke="#21E6C1" stroke-width="4" stroke-miterlimit="5.759" stroke-linecap="round" stroke-linejoin="round"/>
<path d="M189 148.5L175.286 132.5L161.571 148.5L141 124.5" stroke="#21E6C1" stroke-width="4" stroke-miterlimit="5.759" stroke-linecap="round" stroke-linejoin="round"/>
<path d="M13 2.5H2V14.5" stroke="#21E6C1" stroke-width="4" stroke-linecap="round" stroke-linejoin="round"/>
<path d="M13 43.5H2V55.5" stroke="#21E6C1" stroke-width="4" stroke-linecap="round" stroke-linejoin="round"/>
<path d="M13 84.5H2V95.5" stroke="#21E6C1" stroke-width="4" stroke-linecap="round" stroke-linejoin="round"/>
<path d="M13 124.5H2V136.5" stroke="#21E6C1" stroke-width="4" stroke-linecap="round" stroke-linejoin="round"/>
<path d="M82 2.5H72V14.5" stroke="#21E6C1" stroke-width="4" stroke-linecap="round" stroke-linejoin="round"/>
<path d="M82 43.5H72V55.5" stroke="#21E6C1" stroke-width="4" stroke-linecap="round" stroke-linejoin="round"/>
<path d="M82 84.5H72V95.5" stroke="#21E6C1" stroke-width="4" stroke-linecap="round" stroke-linejoin="round"/>
<path d="M82 124.5H72V136.5" stroke="#21E6C1" stroke-width="4" stroke-linecap="round" stroke-linejoin="round"/>
<path d="M152 2.5H141V14.5" stroke="#21E6C1" stroke-width="4" stroke-linecap="round" stroke-linejoin="round"/>
<path d="M152 43.5H141V55.5" stroke="#21E6C1" stroke-width="4" stroke-linecap="round" stroke-linejoin="round"/>
<path d="M152 84.5H141V95.5" stroke="#21E6C1" stroke-width="4" stroke-linecap="round" stroke-linejoin="round"/>
<path d="M152 124.5H141V136.5" stroke="#21E6C1" stroke-width="4" stroke-linecap="round" stroke-linejoin="round"/>
</svg>
