<svg width="296" height="354" viewBox="0 0 296 354" fill="none" xmlns="http://www.w3.org/2000/svg">
<ellipse cx="108" cy="222.5" rx="188" ry="131.5" fill="#21E6C1"/>
<ellipse cx="-41" cy="131.5" rx="188" ry="131.5" fill="#21E6C1"/>
<path fill-rule="evenodd" clip-rule="evenodd" d="M102.581 62.4825C102.73 62.3296 102.908 62.2082 103.103 62.1254C103.299 62.0426 103.508 62 103.72 62C103.931 62 104.141 62.0426 104.336 62.1254C104.531 62.2082 104.709 62.3296 104.858 62.4825L124.159 82.1925C124.461 82.501 124.631 82.9193 124.631 83.3554C124.631 83.7916 124.461 84.2099 124.159 84.5183C123.857 84.8267 123.447 85 123.02 85C122.593 85 122.183 84.8267 121.881 84.5183L103.72 65.9679L85.5577 84.5183C85.2557 84.8267 84.8461 85 84.419 85C83.9919 85 83.5823 84.8267 83.2803 84.5183C82.9783 84.2099 82.8086 83.7916 82.8086 83.3554C82.8086 82.9193 82.9783 82.501 83.2803 82.1925L102.581 62.4825Z" fill="#071E3D"/>
<path fill-rule="evenodd" clip-rule="evenodd" d="M102.581 143.483C102.73 143.33 102.908 143.208 103.103 143.125C103.299 143.043 103.508 143 103.72 143C103.931 143 104.141 143.043 104.336 143.125C104.531 143.208 104.709 143.33 104.858 143.483L124.159 163.193C124.461 163.501 124.631 163.919 124.631 164.355C124.631 164.792 124.461 165.21 124.159 165.518C123.857 165.827 123.447 166 123.02 166C122.593 166 122.183 165.827 121.881 165.518L103.72 146.968L85.5577 165.518C85.2557 165.827 84.8461 166 84.419 166C83.9919 166 83.5823 165.827 83.2803 165.518C82.9783 165.21 82.8086 164.792 82.8086 164.355C82.8086 163.919 82.9783 163.501 83.2803 163.193L102.581 143.483Z" fill="#071E3D"/>
<path fill-rule="evenodd" clip-rule="evenodd" d="M102.581 104.483C102.73 104.33 102.908 104.208 103.103 104.125C103.299 104.043 103.508 104 103.72 104C103.931 104 104.141 104.043 104.336 104.125C104.531 104.208 104.709 104.33 104.858 104.483L124.159 124.193C124.461 124.501 124.631 124.919 124.631 125.355C124.631 125.792 124.461 126.21 124.159 126.518C123.857 126.827 123.447 127 123.02 127C122.593 127 122.183 126.827 121.881 126.518L103.72 107.968L85.5577 126.518C85.2557 126.827 84.8461 127 84.419 127C83.9919 127 83.5823 126.827 83.2803 126.518C82.9783 126.21 82.8086 125.792 82.8086 125.355C82.8086 124.919 82.9783 124.501 83.2803 124.193L102.581 104.483Z" fill="#071E3D"/>
<path fill-rule="evenodd" clip-rule="evenodd" d="M102.581 187.483C102.73 187.33 102.908 187.208 103.103 187.125C103.299 187.043 103.508 187 103.72 187C103.931 187 104.141 187.043 104.336 187.125C104.531 187.208 104.709 187.33 104.858 187.483L124.159 207.193C124.461 207.501 124.631 207.919 124.631 208.355C124.631 208.792 124.461 209.21 124.159 209.518C123.857 209.827 123.447 210 123.02 210C122.593 210 122.183 209.827 121.881 209.518L103.72 190.968L85.5577 209.518C85.2557 209.827 84.8461 210 84.419 210C83.9919 210 83.5823 209.827 83.2803 209.518C82.9783 209.21 82.8086 208.792 82.8086 208.355C82.8086 207.919 82.9783 207.501 83.2803 207.193L102.581 187.483Z" fill="#071E3D"/>
<path fill-rule="evenodd" clip-rule="evenodd" d="M176.581 62.4825C176.73 62.3296 176.908 62.2082 177.103 62.1254C177.299 62.0426 177.508 62 177.72 62C177.931 62 178.141 62.0426 178.336 62.1254C178.531 62.2082 178.709 62.3296 178.858 62.4825L198.159 82.1925C198.461 82.501 198.631 82.9193 198.631 83.3554C198.631 83.7916 198.461 84.2099 198.159 84.5183C197.857 84.8267 197.447 85 197.02 85C196.593 85 196.183 84.8267 195.881 84.5183L177.72 65.9679L159.558 84.5183C159.256 84.8267 158.846 85 158.419 85C157.992 85 157.582 84.8267 157.28 84.5183C156.978 84.2099 156.809 83.7916 156.809 83.3554C156.809 82.9193 156.978 82.501 157.28 82.1925L176.581 62.4825Z" fill="#071E3D"/>
<path fill-rule="evenodd" clip-rule="evenodd" d="M176.581 143.483C176.73 143.33 176.908 143.208 177.103 143.125C177.299 143.043 177.508 143 177.72 143C177.931 143 178.141 143.043 178.336 143.125C178.531 143.208 178.709 143.33 178.858 143.483L198.159 163.193C198.461 163.501 198.631 163.919 198.631 164.355C198.631 164.792 198.461 165.21 198.159 165.518C197.857 165.827 197.447 166 197.02 166C196.593 166 196.183 165.827 195.881 165.518L177.72 146.968L159.558 165.518C159.256 165.827 158.846 166 158.419 166C157.992 166 157.582 165.827 157.28 165.518C156.978 165.21 156.809 164.792 156.809 164.355C156.809 163.919 156.978 163.501 157.28 163.193L176.581 143.483Z" fill="#071E3D"/>
<path fill-rule="evenodd" clip-rule="evenodd" d="M176.581 104.483C176.73 104.33 176.908 104.208 177.103 104.125C177.299 104.043 177.508 104 177.72 104C177.931 104 178.141 104.043 178.336 104.125C178.531 104.208 178.709 104.33 178.858 104.483L198.159 124.193C198.461 124.501 198.631 124.919 198.631 125.355C198.631 125.792 198.461 126.21 198.159 126.518C197.857 126.827 197.447 127 197.02 127C196.593 127 196.183 126.827 195.881 126.518L177.72 107.968L159.558 126.518C159.256 126.827 158.846 127 158.419 127C157.992 127 157.582 126.827 157.28 126.518C156.978 126.21 156.809 125.792 156.809 125.355C156.809 124.919 156.978 124.501 157.28 124.193L176.581 104.483Z" fill="#071E3D"/>
<path fill-rule="evenodd" clip-rule="evenodd" d="M176.581 187.483C176.73 187.33 176.908 187.208 177.103 187.125C177.299 187.043 177.508 187 177.72 187C177.931 187 178.141 187.043 178.336 187.125C178.531 187.208 178.709 187.33 178.858 187.483L198.159 207.193C198.461 207.501 198.631 207.919 198.631 208.355C198.631 208.792 198.461 209.21 198.159 209.518C197.857 209.827 197.447 210 197.02 210C196.593 210 196.183 209.827 195.881 209.518L177.72 190.968L159.558 209.518C159.256 209.827 158.846 210 158.419 210C157.992 210 157.582 209.827 157.28 209.518C156.978 209.21 156.809 208.792 156.809 208.355C156.809 207.919 156.978 207.501 157.28 207.193L176.581 187.483Z" fill="#071E3D"/>
<path fill-rule="evenodd" clip-rule="evenodd" d="M250.581 62.4825C250.73 62.3296 250.908 62.2082 251.103 62.1254C251.299 62.0426 251.508 62 251.72 62C251.931 62 252.141 62.0426 252.336 62.1254C252.531 62.2082 252.709 62.3296 252.858 62.4825L272.159 82.1925C272.461 82.501 272.631 82.9193 272.631 83.3554C272.631 83.7916 272.461 84.2099 272.159 84.5183C271.857 84.8267 271.447 85 271.02 85C270.593 85 270.183 84.8267 269.881 84.5183L251.72 65.9679L233.558 84.5183C233.256 84.8267 232.846 85 232.419 85C231.992 85 231.582 84.8267 231.28 84.5183C230.978 84.2099 230.809 83.7916 230.809 83.3554C230.809 82.9193 230.978 82.501 231.28 82.1925L250.581 62.4825Z" fill="#071E3D"/>
<path fill-rule="evenodd" clip-rule="evenodd" d="M250.581 143.483C250.73 143.33 250.908 143.208 251.103 143.125C251.299 143.043 251.508 143 251.72 143C251.931 143 252.141 143.043 252.336 143.125C252.531 143.208 252.709 143.33 252.858 143.483L272.159 163.193C272.461 163.501 272.631 163.919 272.631 164.355C272.631 164.792 272.461 165.21 272.159 165.518C271.857 165.827 271.447 166 271.02 166C270.593 166 270.183 165.827 269.881 165.518L251.72 146.968L233.558 165.518C233.256 165.827 232.846 166 232.419 166C231.992 166 231.582 165.827 231.28 165.518C230.978 165.21 230.809 164.792 230.809 164.355C230.809 163.919 230.978 163.501 231.28 163.193L250.581 143.483Z" fill="#071E3D"/>
<path fill-rule="evenodd" clip-rule="evenodd" d="M250.581 104.483C250.73 104.33 250.908 104.208 251.103 104.125C251.299 104.043 251.508 104 251.72 104C251.931 104 252.141 104.043 252.336 104.125C252.531 104.208 252.709 104.33 252.858 104.483L272.159 124.193C272.461 124.501 272.631 124.919 272.631 125.355C272.631 125.792 272.461 126.21 272.159 126.518C271.857 126.827 271.447 127 271.02 127C270.593 127 270.183 126.827 269.881 126.518L251.72 107.968L233.558 126.518C233.256 126.827 232.846 127 232.419 127C231.992 127 231.582 126.827 231.28 126.518C230.978 126.21 230.809 125.792 230.809 125.355C230.809 124.919 230.978 124.501 231.28 124.193L250.581 104.483Z" fill="#071E3D"/>
<path fill-rule="evenodd" clip-rule="evenodd" d="M250.581 187.483C250.73 187.33 250.908 187.208 251.103 187.125C251.299 187.043 251.508 187 251.72 187C251.931 187 252.141 187.043 252.336 187.125C252.531 187.208 252.709 187.33 252.858 187.483L272.159 207.193C272.461 207.501 272.631 207.919 272.631 208.355C272.631 208.792 272.461 209.21 272.159 209.518C271.857 209.827 271.447 210 271.02 210C270.593 210 270.183 209.827 269.881 209.518L251.72 190.968L233.558 209.518C233.256 209.827 232.846 210 232.419 210C231.992 210 231.582 209.827 231.28 209.518C230.978 209.21 230.809 208.792 230.809 208.355C230.809 207.919 230.978 207.501 231.28 207.193L250.581 187.483Z" fill="#071E3D"/>
</svg>
