<svg width="162" height="219" viewBox="0 0 162 219" fill="none" xmlns="http://www.w3.org/2000/svg">
<path fill-rule="evenodd" clip-rule="evenodd" d="M176.517 26.5803C176.67 26.7297 176.792 26.9072 176.875 27.1026C176.957 27.298 177 27.5075 177 27.7191C177 27.9306 176.957 28.1401 176.875 28.3355C176.792 28.5309 176.67 28.7084 176.517 28.8578L156.807 48.1583C156.499 48.4604 156.081 48.63 155.645 48.63C155.208 48.63 154.79 48.4604 154.482 48.1583C154.173 47.8563 154 47.4467 154 47.0196C154 46.5925 154.173 46.1829 154.482 45.8809L173.032 27.7191L154.482 9.55725C154.173 9.25524 154 8.84562 154 8.41852C154 7.99141 154.173 7.58179 154.482 7.27978C154.79 6.97777 155.208 6.8081 155.645 6.8081C156.081 6.8081 156.499 6.97777 156.807 7.27978L176.517 26.5803Z" fill="#071E3D"/>
<path fill-rule="evenodd" clip-rule="evenodd" d="M95.5175 26.5803C95.6704 26.7297 95.7918 26.9072 95.8746 27.1026C95.9574 27.298 96 27.5075 96 27.7191C96 27.9306 95.9574 28.1401 95.8746 28.3355C95.7918 28.5309 95.6704 28.7084 95.5175 28.8578L75.8075 48.1583C75.499 48.4604 75.0807 48.63 74.6446 48.63C74.2084 48.63 73.7901 48.4604 73.4817 48.1583C73.1733 47.8563 73 47.4467 73 47.0196C73 46.5925 73.1733 46.1829 73.4817 45.8809L92.0321 27.7191L73.4817 9.55725C73.1733 9.25524 73 8.84562 73 8.41852C73 7.99141 73.1733 7.58179 73.4817 7.27978C73.7901 6.97777 74.2084 6.8081 74.6446 6.8081C75.0807 6.8081 75.499 6.97777 75.8075 7.27978L95.5175 26.5803Z" fill="#071E3D"/>
<path fill-rule="evenodd" clip-rule="evenodd" d="M134.517 26.5803C134.67 26.7297 134.792 26.9072 134.875 27.1026C134.957 27.298 135 27.5075 135 27.7191C135 27.9306 134.957 28.1401 134.875 28.3355C134.792 28.5309 134.67 28.7084 134.517 28.8578L114.807 48.1583C114.499 48.4604 114.081 48.63 113.645 48.63C113.208 48.63 112.79 48.4604 112.482 48.1583C112.173 47.8563 112 47.4467 112 47.0196C112 46.5925 112.173 46.1829 112.482 45.8809L131.032 27.7191L112.482 9.55725C112.173 9.25524 112 8.84562 112 8.41852C112 7.99141 112.173 7.58179 112.482 7.27978C112.79 6.97777 113.208 6.8081 113.645 6.8081C114.081 6.8081 114.499 6.97777 114.807 7.27978L134.517 26.5803Z" fill="#071E3D"/>
<path fill-rule="evenodd" clip-rule="evenodd" d="M51.5175 26.5803C51.6704 26.7297 51.7918 26.9072 51.8746 27.1026C51.9574 27.298 52 27.5075 52 27.7191C52 27.9306 51.9574 28.1401 51.8746 28.3355C51.7918 28.5309 51.6704 28.7084 51.5175 28.8578L31.8075 48.1583C31.499 48.4604 31.0807 48.63 30.6446 48.63C30.2084 48.63 29.7901 48.4604 29.4817 48.1583C29.1733 47.8563 29 47.4467 29 47.0196C29 46.5925 29.1733 46.1829 29.4817 45.8809L48.0321 27.7191L29.4817 9.55725C29.1733 9.25524 29 8.84562 29 8.41852C29 7.99141 29.1733 7.58179 29.4817 7.27978C29.7901 6.97777 30.2084 6.8081 30.6446 6.8081C31.0807 6.8081 31.499 6.97777 31.8075 7.27978L51.5175 26.5803Z" fill="#071E3D"/>
<path fill-rule="evenodd" clip-rule="evenodd" d="M176.517 100.58C176.67 100.73 176.792 100.907 176.875 101.103C176.957 101.298 177 101.508 177 101.719C177 101.931 176.957 102.14 176.875 102.336C176.792 102.531 176.67 102.708 176.517 102.858L156.807 122.158C156.499 122.46 156.081 122.63 155.645 122.63C155.208 122.63 154.79 122.46 154.482 122.158C154.173 121.856 154 121.447 154 121.02C154 120.593 154.173 120.183 154.482 119.881L173.032 101.719L154.482 83.5572C154.173 83.2552 154 82.8456 154 82.4185C154 81.9914 154.173 81.5818 154.482 81.2798C154.79 80.9778 155.208 80.8081 155.645 80.8081C156.081 80.8081 156.499 80.9778 156.807 81.2798L176.517 100.58Z" fill="#071E3D"/>
<path fill-rule="evenodd" clip-rule="evenodd" d="M95.5175 100.58C95.6704 100.73 95.7918 100.907 95.8746 101.103C95.9574 101.298 96 101.508 96 101.719C96 101.931 95.9574 102.14 95.8746 102.336C95.7918 102.531 95.6704 102.708 95.5175 102.858L75.8075 122.158C75.499 122.46 75.0807 122.63 74.6446 122.63C74.2084 122.63 73.7901 122.46 73.4817 122.158C73.1733 121.856 73 121.447 73 121.02C73 120.593 73.1733 120.183 73.4817 119.881L92.0321 101.719L73.4817 83.5572C73.1733 83.2552 73 82.8456 73 82.4185C73 81.9914 73.1733 81.5818 73.4817 81.2798C73.7901 80.9778 74.2084 80.8081 74.6446 80.8081C75.0807 80.8081 75.499 80.9778 75.8075 81.2798L95.5175 100.58Z" fill="#071E3D"/>
<path fill-rule="evenodd" clip-rule="evenodd" d="M134.517 100.58C134.67 100.73 134.792 100.907 134.875 101.103C134.957 101.298 135 101.508 135 101.719C135 101.931 134.957 102.14 134.875 102.336C134.792 102.531 134.67 102.708 134.517 102.858L114.807 122.158C114.499 122.46 114.081 122.63 113.645 122.63C113.208 122.63 112.79 122.46 112.482 122.158C112.173 121.856 112 121.447 112 121.02C112 120.593 112.173 120.183 112.482 119.881L131.032 101.719L112.482 83.5572C112.173 83.2552 112 82.8456 112 82.4185C112 81.9914 112.173 81.5818 112.482 81.2798C112.79 80.9778 113.208 80.8081 113.645 80.8081C114.081 80.8081 114.499 80.9778 114.807 81.2798L134.517 100.58Z" fill="#071E3D"/>
<path fill-rule="evenodd" clip-rule="evenodd" d="M51.5175 100.58C51.6704 100.73 51.7918 100.907 51.8746 101.103C51.9574 101.298 52 101.508 52 101.719C52 101.931 51.9574 102.14 51.8746 102.336C51.7918 102.531 51.6704 102.708 51.5175 102.858L31.8075 122.158C31.499 122.46 31.0807 122.63 30.6446 122.63C30.2084 122.63 29.7901 122.46 29.4817 122.158C29.1733 121.856 29 121.447 29 121.02C29 120.593 29.1733 120.183 29.4817 119.881L48.0321 101.719L29.4817 83.5572C29.1733 83.2552 29 82.8456 29 82.4185C29 81.9914 29.1733 81.5818 29.4817 81.2798C29.7901 80.9778 30.2084 80.8081 30.6446 80.8081C31.0807 80.8081 31.499 80.9778 31.8075 81.2798L51.5175 100.58Z" fill="#071E3D"/>
<path fill-rule="evenodd" clip-rule="evenodd" d="M176.517 174.58C176.67 174.73 176.792 174.907 176.875 175.103C176.957 175.298 177 175.508 177 175.719C177 175.931 176.957 176.14 176.875 176.336C176.792 176.531 176.67 176.708 176.517 176.858L156.807 196.158C156.499 196.46 156.081 196.63 155.645 196.63C155.208 196.63 154.79 196.46 154.482 196.158C154.173 195.856 154 195.447 154 195.02C154 194.593 154.173 194.183 154.482 193.881L173.032 175.719L154.482 157.557C154.173 157.255 154 156.846 154 156.419C154 155.991 154.173 155.582 154.482 155.28C154.79 154.978 155.208 154.808 155.645 154.808C156.081 154.808 156.499 154.978 156.807 155.28L176.517 174.58Z" fill="#071E3D"/>
<path fill-rule="evenodd" clip-rule="evenodd" d="M95.5175 174.58C95.6704 174.73 95.7918 174.907 95.8746 175.103C95.9574 175.298 96 175.508 96 175.719C96 175.931 95.9574 176.14 95.8746 176.336C95.7918 176.531 95.6704 176.708 95.5175 176.858L75.8075 196.158C75.499 196.46 75.0807 196.63 74.6446 196.63C74.2084 196.63 73.7901 196.46 73.4817 196.158C73.1733 195.856 73 195.447 73 195.02C73 194.593 73.1733 194.183 73.4817 193.881L92.0321 175.719L73.4817 157.557C73.1733 157.255 73 156.846 73 156.419C73 155.991 73.1733 155.582 73.4817 155.28C73.7901 154.978 74.2084 154.808 74.6446 154.808C75.0807 154.808 75.499 154.978 75.8075 155.28L95.5175 174.58Z" fill="#071E3D"/>
<path fill-rule="evenodd" clip-rule="evenodd" d="M134.517 174.58C134.67 174.73 134.792 174.907 134.875 175.103C134.957 175.298 135 175.508 135 175.719C135 175.931 134.957 176.14 134.875 176.336C134.792 176.531 134.67 176.708 134.517 176.858L114.807 196.158C114.499 196.46 114.081 196.63 113.645 196.63C113.208 196.63 112.79 196.46 112.482 196.158C112.173 195.856 112 195.447 112 195.02C112 194.593 112.173 194.183 112.482 193.881L131.032 175.719L112.482 157.557C112.173 157.255 112 156.846 112 156.419C112 155.991 112.173 155.582 112.482 155.28C112.79 154.978 113.208 154.808 113.645 154.808C114.081 154.808 114.499 154.978 114.807 155.28L134.517 174.58Z" fill="#071E3D"/>
<path fill-rule="evenodd" clip-rule="evenodd" d="M51.5175 174.58C51.6704 174.73 51.7918 174.907 51.8746 175.103C51.9574 175.298 52 175.508 52 175.719C52 175.931 51.9574 176.14 51.8746 176.336C51.7918 176.531 51.6704 176.708 51.5175 176.858L31.8075 196.158C31.499 196.46 31.0807 196.63 30.6446 196.63C30.2084 196.63 29.7901 196.46 29.4817 196.158C29.1733 195.856 29 195.447 29 195.02C29 194.593 29.1733 194.183 29.4817 193.881L48.0321 175.719L29.4817 157.557C29.1733 157.255 29 156.846 29 156.419C29 155.991 29.1733 155.582 29.4817 155.28C29.7901 154.978 30.2084 154.808 30.6446 154.808C31.0807 154.808 31.499 154.978 31.8075 155.28L51.5175 174.58Z" fill="#071E3D"/>
</svg>
